<svg xmlns="http://www.w3.org/2000/svg" width="30" height="30" viewBox="0 0 30 30">
    <defs>
        <style>
            .cls-1{fill:#fff}
        </style>
    </defs>
    <path id="facebook" d="M10.038 6A4.043 4.043 0 0 0 6 10.038v21.924A4.043 4.043 0 0 0 10.038 36h21.924A4.043 4.043 0 0 0 36 31.962V10.038A4.043 4.043 0 0 0 31.962 6zm0 1.154h21.924a2.884 2.884 0 0 1 2.885 2.885v21.923a2.884 2.884 0 0 1-2.885 2.885h-6.4V27.33h3.41a.578.578 0 0 0 .57-.482l.656-4.011a.579.579 0 0 0-.57-.672h-4.071v-.933c0-1.1.228-1.584 1.573-1.584h2.684a.577.577 0 0 0 .577-.577v-4.178a.573.573 0 0 0-.518-.572c-.859-.086-2.56-.243-3.358-.243-3.714 0-6.112 2.556-6.112 6.511v1.577h-3.441a.578.578 0 0 0-.577.577v4.011a.577.577 0 0 0 .577.577H20.4v7.516H10.038a2.884 2.884 0 0 1-2.885-2.885V10.038a2.884 2.884 0 0 1 2.885-2.884zm-.576 2.308a.577.577 0 0 0-.577.577v1.154a.577.577 0 1 0 1.154 0v-1.155a.577.577 0 0 0-.577-.576zm2.885 0a.577.577 0 0 0-.577.577v1.154a.577.577 0 1 0 1.154 0v-1.155a.577.577 0 0 0-.578-.576zm2.885 0a.577.577 0 0 0-.577.577v1.154a.577.577 0 0 0 1.154 0v-1.155a.577.577 0 0 0-.578-.576zm2.885 0a.577.577 0 0 0-.577.577v1.154a.577.577 0 1 0 1.154 0v-1.155a.577.577 0 0 0-.579-.576zm2.885 0a.577.577 0 0 0-.577.577v1.154a.577.577 0 0 0 1.154 0v-1.155A.577.577 0 0 0 21 9.462zm2.885 0a.577.577 0 0 0-.577.577v1.154a.577.577 0 1 0 1.154 0v-1.155a.577.577 0 0 0-.579-.576zm2.885 0a.577.577 0 0 0-.577.577v1.154a.577.577 0 1 0 1.154 0v-1.155a.577.577 0 0 0-.58-.576zm2.885 0a.577.577 0 0 0-.577.577v1.154a.577.577 0 1 0 1.154 0v-1.155a.577.577 0 0 0-.58-.576zm2.885 0a.577.577 0 0 0-.577.577v1.154a.577.577 0 1 0 1.154 0v-1.155a.577.577 0 0 0-.581-.576zm-6.024 5.769a24.538 24.538 0 0 1 2.722.155v3.108h-2.1c-2.445 0-2.727 1.562-2.727 2.738v2.087h4.539l-.469 2.858H24.4v8.67h-2.846v-8.67h-4.016v-2.858h4.018v-2.731c.001-3.354 1.853-5.357 4.959-5.357z" class="cls-1" transform="translate(-6 -6)"/>
</svg>
