<svg xmlns="http://www.w3.org/2000/svg" width="30" height="30" viewBox="0 0 30 30">
    <defs>
        <style>
            .cls-1{fill:#fff}
        </style>
    </defs>
    <path id="instagram" d="M10.038 6A4.043 4.043 0 0 0 6 10.038v21.924A4.043 4.043 0 0 0 10.038 36h21.924A4.043 4.043 0 0 0 36 31.962V10.038A4.043 4.043 0 0 0 31.962 6zm0 1.154h.577v1.731a.577.577 0 0 0 1.154 0V7.154h20.193a2.887 2.887 0 0 1 2.885 2.885v5.192h-8.078a.433.433 0 0 1-.144-.018 8.054 8.054 0 0 0-11.268.018.764.764 0 0 1-.126 0H7.154v-5.193a2.887 2.887 0 0 1 2.884-2.884zm19.616 1.154a1.734 1.734 0 0 0-1.731 1.731v1.154a1.734 1.734 0 0 0 1.731 1.731h2.308a1.734 1.734 0 0 0 1.731-1.731v-1.155a1.734 1.734 0 0 0-1.731-1.731zm0 1.154h2.308a.578.578 0 0 1 .577.577v1.154a.578.578 0 0 1-.577.577h-2.308a.578.578 0 0 1-.577-.577v-1.155a.578.578 0 0 1 .577-.576zm-18.462 1.153a.577.577 0 0 0-.577.577V13.5a.577.577 0 0 0 1.154 0v-2.308a.577.577 0 0 0-.577-.577zM21 14.077A6.923 6.923 0 1 1 14.077 21 6.931 6.931 0 0 1 21 14.077zm0 1.154A5.769 5.769 0 1 0 26.769 21 5.775 5.775 0 0 0 21 15.231zM7.154 16.385h7.227a8.077 8.077 0 1 0 13.238 0h7.227v15.577a2.887 2.887 0 0 1-2.885 2.885H10.038a2.887 2.887 0 0 1-2.885-2.885zm13.846 0A4.615 4.615 0 1 1 16.385 21 4.621 4.621 0 0 1 21 16.385zM9.462 30.808a.577.577 0 0 0-.577.577v1.154a.577.577 0 0 0 1.154 0v-1.154a.577.577 0 0 0-.577-.577zm2.885 0a.577.577 0 0 0-.577.577v1.154a.577.577 0 0 0 1.154 0v-1.154a.577.577 0 0 0-.578-.577zm2.885 0a.577.577 0 0 0-.577.577v1.154a.577.577 0 0 0 1.154 0v-1.154a.577.577 0 0 0-.578-.577zm2.885 0a.577.577 0 0 0-.577.577v1.154a.577.577 0 0 0 1.154 0v-1.154a.577.577 0 0 0-.579-.577zm2.885 0a.577.577 0 0 0-.577.577v1.154a.577.577 0 0 0 1.154 0v-1.154a.577.577 0 0 0-.579-.577zm2.885 0a.577.577 0 0 0-.577.577v1.154a.577.577 0 0 0 1.154 0v-1.154a.577.577 0 0 0-.579-.577zm2.885 0a.577.577 0 0 0-.577.577v1.154a.577.577 0 0 0 1.154 0v-1.154a.577.577 0 0 0-.58-.577zm2.885 0a.577.577 0 0 0-.577.577v1.154a.577.577 0 0 0 1.154 0v-1.154a.577.577 0 0 0-.58-.577zm2.885 0a.577.577 0 0 0-.577.577v1.154a.577.577 0 0 0 1.154 0v-1.154a.577.577 0 0 0-.581-.577z" class="cls-1" transform="translate(-6 -6)"/>
</svg>
