<svg xmlns="http://www.w3.org/2000/svg" width="64" height="51.973" viewBox="0 0 64 51.973">
    <defs>
        <style>
            .cls-1{fill:#fff}
        </style>
    </defs>
    <path id="kitchen" d="M29 6a3.006 3.006 0 0 0-3 3v1H15.656a4.964 4.964 0 0 0-3.535 1.465L9.586 14h-3.57a3 3 0 1 0 0 6h.012v4H3a3.006 3.006 0 0 0-3 3v.766a3 3 0 0 0 1.656 2.684l4.367 2.184V53A4.981 4.981 0 0 0 11 57.973h42A4.978 4.978 0 0 0 57.973 53V32.629l4.371-2.18A2.992 2.992 0 0 0 64 27.766V27a3.006 3.006 0 0 0-3-3h-3.027v-4h.016a3 3 0 1 0 0-6H54.07l-2.535-2.535A4.964 4.964 0 0 0 48 10H38V9a3.006 3.006 0 0 0-3-3zm0 2h6a1 1 0 0 1 1 1v1h-8V9a1 1 0 0 1 1-1zm-13.344 4H48a2.982 2.982 0 0 1 2.121.879L51.242 14H12.414l1.121-1.121A3.021 3.021 0 0 1 15.656 12zm-9.64 4h51.972a1 1 0 1 1 0 2H6.016a1 1 0 1 1 0-2zm1.961 4h48.05v33A3.032 3.032 0 0 1 53 56.027H11A3.029 3.029 0 0 1 7.977 53zM3 26h3v4.383l-3.445-1.727a.986.986 0 0 1-.555-.89V27a1 1 0 0 1 1-1zm55 0h3a1 1 0 0 1 1 1v.766a.989.989 0 0 1-.551.891L58 30.383zm-46 .039a1 1 0 0 0-1 1v2a1 1 0 0 0 2 0v-2a1 1 0 0 0-1-1zm5 0a1 1 0 0 0-1 1v2a1 1 0 0 0 2 0v-2a1 1 0 0 0-1-1zm5 0a1 1 0 0 0-1 1v2a1 1 0 0 0 2 0v-2a1 1 0 0 0-1-1zm5 0a1 1 0 0 0-1 1v2a1 1 0 0 0 2 0v-2a1 1 0 0 0-1-1zm5 0a1 1 0 0 0-1 1v2a1 1 0 0 0 2 0v-2a1 1 0 0 0-1-1zm5 0a1 1 0 0 0-1 1v2a1 1 0 0 0 2 0v-2a1 1 0 0 0-1-1zm5 0a1 1 0 0 0-1 1v2a1 1 0 0 0 2 0v-2a1 1 0 0 0-1-1zm5 0a1 1 0 0 0-1 1v2a1 1 0 0 0 2 0v-2a1 1 0 0 0-1-1zm5 0a1 1 0 0 0-1 1v2a1 1 0 0 0 2 0v-2a1 1 0 0 0-1-1zM11 52a1 1 0 1 0 0 2h34a1 1 0 0 0 0-2zm38 0a1 1 0 0 0 0 2h4a1 1 0 0 0 0-2z" class="cls-1" transform="translate(0 -6)"/>
</svg>
