<svg xmlns="http://www.w3.org/2000/svg" width="64" height="43" viewBox="0 0 64 43">
    <defs>
        <style>
            .cls-1{fill:#fff}
        </style>
    </defs>
    <path id="table" d="M3 14a3 3 0 0 0 0 6h2.855L1.164 54.734A2 2 0 0 0 3.145 57h2.082a2.005 2.005 0 0 0 1.938-1.5L11.7 38H41a1 1 0 0 0 0-2H12.219l1.359-5.25a1 1 0 0 1 .969-.75h34.906a1 1 0 0 1 .969.75L56.84 55.5a2 2 0 0 0 1.933 1.5h2.082a2.006 2.006 0 0 0 1.984-2.266L58.145 20H61a3 3 0 0 0 0-6zm0 2h58a1 1 0 0 1 0 2H3a1 1 0 0 1 0-2zm4.875 4h48.25l.3 2.2A.988.988 0 0 0 56 23v2a.989.989 0 0 0 .938.984L60.855 55h-2.082l-6.418-24.754A3 3 0 0 0 49.453 28H14.547a3 3 0 0 0-2.9 2.246L5.227 55H3.145l3.918-29.016A.989.989 0 0 0 8 25v-2a.988.988 0 0 0-.422-.8zM12 22a1 1 0 0 0-1 1v2a1 1 0 0 0 2 0v-2a1 1 0 0 0-1-1zm5 0a1 1 0 0 0-1 1v2a1 1 0 0 0 2 0v-2a1 1 0 0 0-1-1zm5 0a1 1 0 0 0-1 1v2a1 1 0 0 0 2 0v-2a1 1 0 0 0-1-1zm5 0a1 1 0 0 0-1 1v2a1 1 0 0 0 2 0v-2a1 1 0 0 0-1-1zm5 0a1 1 0 0 0-1 1v2a1 1 0 0 0 2 0v-2a1 1 0 0 0-1-1zm5 0a1 1 0 0 0-1 1v2a1 1 0 0 0 2 0v-2a1 1 0 0 0-1-1zm5 0a1 1 0 0 0-1 1v2a1 1 0 0 0 2 0v-2a1 1 0 0 0-1-1zm5 0a1 1 0 0 0-1 1v2a1 1 0 0 0 2 0v-2a1 1 0 0 0-1-1zm5 0a1 1 0 0 0-1 1v2a1 1 0 0 0 2 0v-2a1 1 0 0 0-1-1zm-7 14a1 1 0 0 0 0 2h4a1 1 0 0 0 0-2z" class="cls-1" transform="translate(0 -14)"/>
</svg>
